<?xml version="1.0" encoding="utf-8"?>
<!-- Generator: Adobe Illustrator 23.1.1, SVG Export Plug-In . SVG Version: 6.00 Build 0)  -->
<svg version="1.1" id="Layer_1" xmlns="http://www.w3.org/2000/svg" xmlns:xlink="http://www.w3.org/1999/xlink" x="0px" y="0px"
	 viewBox="0 0 1320.15 1081.93" style="enable-background:new 0 0 1320.15 1081.93;" xml:space="preserve">
<style type="text/css">
	.st0{fill:none;stroke:#FFFFFF;stroke-width:3.5115;stroke-miterlimit:10;}
	.st1{fill:none;stroke:#FFFFFF;stroke-width:3.9903;stroke-miterlimit:10;}
	.st2{fill:none;stroke:#FFFFFF;stroke-width:4.4692;stroke-miterlimit:10;}
	.st3{fill:none;stroke:#FFFFFF;stroke-width:4.948;stroke-miterlimit:10;}
	.st4{fill:none;stroke:#FFFFFF;stroke-width:5.4269;stroke-miterlimit:10;}
	.st5{fill:none;stroke:#FFFFFF;stroke-width:5.9057;stroke-miterlimit:10;}
	.st6{fill:none;stroke:#FFFFFF;stroke-width:6.3846;stroke-miterlimit:10;}
	.st7{fill:none;stroke:#FFFFFF;stroke-width:6.8634;stroke-miterlimit:10;}
	.st8{fill:none;stroke:#FFFFFF;stroke-width:7.3422;stroke-miterlimit:10;}
	.st9{fill:none;stroke:#FFFFFF;stroke-width:7.8211;stroke-miterlimit:10;}
	.st10{fill:none;stroke:#FFFFFF;stroke-width:8.2999;stroke-miterlimit:10;}
	.st11{fill:none;stroke:#FFFFFF;stroke-width:8.7788;stroke-miterlimit:10;}
	.st12{fill:none;stroke:#FFFFFF;stroke-width:9.2576;stroke-miterlimit:10;}
	.st13{fill:none;stroke:#FFFFFF;stroke-width:9.7364;stroke-miterlimit:10;}
	.st14{fill:none;stroke:#FFFFFF;stroke-width:10.2153;stroke-miterlimit:10;}
	.st15{fill:none;stroke:#FFFFFF;stroke-width:10.6941;stroke-miterlimit:10;}
	.st16{fill:none;stroke:#FFFFFF;stroke-width:11.173;stroke-miterlimit:10;}
	.st17{fill:none;stroke:#FFFFFF;stroke-width:11.6518;stroke-miterlimit:10;}
	.st18{fill:none;stroke:#FFFFFF;stroke-width:12.1306;stroke-miterlimit:10;}
	.st19{fill:none;stroke:#FFFFFF;stroke-width:12.6095;stroke-miterlimit:10;}
	.st20{fill:none;stroke:#FFFFFF;stroke-width:13.0883;stroke-miterlimit:10;}
	.st21{fill:none;stroke:#FFFFFF;stroke-width:13.5672;stroke-miterlimit:10;}
	.st22{fill:none;stroke:#FFFFFF;stroke-width:14.046;stroke-miterlimit:10;}
</style>
<g>
	<path class="st0" d="M1318.73,1.76c-379.17,0-360.32,280.55-502.36,342.31C574.13,449.39,742.65,612.64,363.48,681.1
		S1.88,1081.33,1.88,1081.33"/>
	<path class="st1" d="M52.87,1081.33c0.15-1.76-16.14-319.9,346.45-386.47c362.75-66.86,203-223.82,435.35-325.18
		C972.51,309.05,956.8,40.77,1318.73,40.77"/>
	<path class="st2" d="M103.85,1081.33c0.3-3.52-14.71-308.04,331.31-372.71c346.34-65.26,195.66-215.23,417.8-313.33
		c133.82-59.1,121.07-315.5,465.77-315.5"/>
	<path class="st3" d="M154.84,1081.33c0.45-5.27-13.29-296.18,316.16-358.95c329.93-63.65,188.15-207.01,400.25-301.47
		c129.72-57.77,120.02-302.09,447.48-302.09"/>
	<path class="st4" d="M205.83,1081.33c0.6-7.03-11.86-284.32,301.01-345.19c313.52-62.05,180.64-198.81,382.71-289.62
		c125.61-56.45,118.96-288.69,429.18-288.69"/>
	<path class="st5" d="M256.81,1081.33c0.75-8.79-10.31-271.83,285.87-331.44c297.23-59.82,173.13-190.63,365.16-277.76
		c121.5-55.13,117.9-275.28,410.89-275.28"/>
	<path class="st6" d="M307.8,1081.33c0.9-10.55-8.85-259.85,270.72-317.68c280.85-58.09,165.61-182.46,347.62-265.91
		c117.4-53.82,116.84-261.88,392.6-261.88"/>
	<path class="st7" d="M358.79,1081.33c1.05-12.3-7.39-247.87,255.57-303.92c264.47-56.37,158.08-174.32,330.07-254.05
		c113.29-52.52,115.78-248.47,374.3-248.47"/>
	<path class="st8" d="M409.77,1081.33c1.21-14.06-5.94-235.9,240.43-290.16c248.09-54.65,150.54-166.21,312.52-242.2
		c109.19-51.22,114.72-235.07,356.01-235.07"/>
	<path class="st9" d="M460.76,1081.33c1.36-15.82-4.47-223.92,225.28-276.41c231.71-52.93,142.99-158.12,294.98-230.34
		c105.08-49.93,113.66-221.66,337.72-221.66"/>
	<path class="st10" d="M511.75,1081.33c1.51-17.58-3.01-211.95,210.13-262.65c215.33-51.22,135.43-150.07,277.43-218.49
		c100.97-48.65,112.61-208.26,319.42-208.26"/>
	<path class="st11" d="M562.73,1081.33c1.66-19.33-1.55-199.99,194.99-248.89c198.96-49.51,127.86-142.05,259.88-206.63
		c96.86-47.38,111.55-194.85,301.13-194.85"/>
	<path class="st12" d="M613.72,1081.33c1.81-21.09-0.08-188.03,179.84-235.13c182.59-47.8,120.27-134.07,242.34-194.78
		c92.75-46.13,110.49-181.45,282.84-181.45"/>
	<path class="st13" d="M664.71,1081.33c1.96-22.85,1.39-176.08,164.69-221.38c166.23-46.11,112.66-126.13,224.79-182.93
		c88.63-44.89,109.43-168.04,264.54-168.04"/>
	<path class="st14" d="M715.69,1081.33c2.11-24.61,2.87-164.15,149.55-207.62c149.87-44.42,105.03-118.25,207.24-171.07
		C1156.99,658.96,1180.85,548,1318.73,548"/>
	<path class="st15" d="M766.68,1081.33c2.26-26.36,4.35-152.22,134.4-193.86c133.52-42.75,97.38-110.42,189.7-159.22
		c80.38-42.49,107.31-141.23,227.96-141.23"/>
	<path class="st16" d="M817.66,1081.33c2.41-28.12,5.84-140.33,119.25-180.1c117.18-41.1,89.7-102.65,172.15-147.36
		c76.23-41.34,106.25-127.82,209.66-127.82"/>
	<path class="st17" d="M868.65,1081.33c2.56-29.88,7.33-128.46,104.11-166.35c100.85-39.48,81.98-94.95,154.61-135.51
		c72.06-40.24,105.2-114.42,191.37-114.42"/>
	<path class="st18" d="M919.64,1081.33c2.71-31.64,8.83-116.65,88.96-152.59c84.53-37.91,74.22-87.34,137.06-123.65
		c67.86-39.21,104.14-101.01,173.08-101.01"/>
	<path class="st19" d="M970.62,1081.33c2.86-33.4,10.33-104.92,73.81-138.83c68.2-36.42,66.41-79.83,119.51-111.8
		c63.59-38.28,103.08-87.61,154.78-87.61"/>
	<path class="st20" d="M1021.61,1081.33c3.01-35.15,11.78-93.34,58.67-125.07c51.84-35.08,58.52-72.42,101.97-99.94
		c59.22-37.51,102.02-74.2,136.49-74.2"/>
	<path class="st21" d="M1072.6,1081.33c3.16-36.91,13.08-81.99,43.52-111.31c35.3-34,50.54-65.14,84.42-88.09
		c54.65-37.02,100.96-60.8,118.2-60.8"/>
	<path class="st22" d="M1123.58,1081.33c15.8-184.32,195.15-221.18,195.15-221.18"/>
</g>
</svg>
