<?xml version="1.0" encoding="UTF-8" standalone="no"?>
<!-- Generator: Adobe Illustrator 23.1.1, SVG Export Plug-In . SVG Version: 6.00 Build 0)  -->

<svg
   version="1.1"
   id="Layer_1"
   x="0px"
   y="0px"
   viewBox="0 0 1024 341.53"
   xml:space="preserve"
   sodipodi:docname="logo.svg"
   width="1024"
   height="341.53"
   inkscape:export-filename="logo-copper.svg"
   inkscape:export-xdpi="96"
   inkscape:export-ydpi="96"
   inkscape:version="1.2.2 (b0a8486, 2022-12-01)"
   xmlns:inkscape="http://www.inkscape.org/namespaces/inkscape"
   xmlns:sodipodi="http://sodipodi.sourceforge.net/DTD/sodipodi-0.dtd"
   xmlns="http://www.w3.org/2000/svg"
   xmlns:svg="http://www.w3.org/2000/svg"><defs
   id="defs76" /><sodipodi:namedview
   id="namedview74"
   pagecolor="#ffffff"
   bordercolor="#000000"
   borderopacity="0.25"
   inkscape:showpageshadow="2"
   inkscape:pageopacity="0.0"
   inkscape:pagecheckerboard="0"
   inkscape:deskcolor="#d1d1d1"
   showgrid="false"
   inkscape:zoom="0.23046875"
   inkscape:cx="-397.01695"
   inkscape:cy="221.28814"
   inkscape:window-width="1344"
   inkscape:window-height="738"
   inkscape:window-x="0"
   inkscape:window-y="25"
   inkscape:window-maximized="0"
   inkscape:current-layer="Layer_1" />
<style
   type="text/css"
   id="style63">
	.st0{fill:#FFFFFF;}
</style>
<g
   id="g71"
   transform="translate(0,-341.23)">
	<path
   class="st0"
   d="M 173.91,561.93 C 173.91,591.19 150.1,615 120.84,615 91.58,615 67.77,591.19 67.77,561.93 V 341.23 H 0 v 220.7 c 0,66.63 54.21,120.83 120.83,120.83 66.63,0 120.83,-54.21 120.83,-120.83 V 341.23 H 173.9 v 220.7 z"
   id="path65" />
	<path
   class="st0"
   d="m 903.17,341.23 c -66.63,0 -120.83,54.2 -120.83,120.83 v 111.37 67.76 41.56 H 850.1 V 641.2 h 106.14 v 41.56 H 1024 V 641.2 573.44 462.07 C 1024,395.44 969.79,341.23 903.17,341.23 Z M 850.1,573.44 V 462.07 c 0,-29.26 23.81,-53.07 53.07,-53.07 29.26,0 53.07,23.81 53.07,53.07 v 111.37 z"
   id="path67" />
	<path
   class="st0"
   d="m 598.95,341.23 c -34.11,0 -64.96,14.21 -86.95,37.02 -21.99,-22.81 -52.84,-37.02 -86.95,-37.02 -66.63,0 -120.83,54.2 -120.83,120.83 v 220.7 h 67.76 v -220.7 c 0,-29.26 23.81,-53.07 53.07,-53.07 29.26,0 53.07,23.81 53.07,53.07 v 220.7 h 67.76 v -220.7 c 0,-29.26 23.81,-53.07 53.07,-53.07 29.26,0 53.07,23.81 53.07,53.07 v 220.7 h 67.76 v -220.7 c 0,-66.62 -54.2,-120.83 -120.83,-120.83 z"
   id="path69" />
</g>
</svg>
