<?xml version="1.0" encoding="utf-8"?>
<!-- Generator: Adobe Illustrator 22.1.0, SVG Export Plug-In . SVG Version: 6.00 Build 0)  -->
<svg version="1.1" id="Ebene_1" xmlns="http://www.w3.org/2000/svg" xmlns:xlink="http://www.w3.org/1999/xlink" x="0px" y="0px"
	 viewBox="0 0 569.7 86.9" style="enable-background:new 0 0 569.7 86.9;" xml:space="preserve">
<g>
	<path d="M0,83.4V7.6c0-1.2,0.7-1.9,2-1.9c0.8,0,1.9,1.3,3.4,3.9l21.1,41.6L47.7,9.6c1.5-2.6,2.6-3.9,3.4-3.9c1.3,0,2,0.6,2,1.9
		v75.8c0,1.3-0.7,2-2,2s-2-0.7-2-2V15.3L28.5,55c-0.7,1.4-1.4,2.1-2.1,2.1c-0.7,0-1.4-0.7-2.1-2.1L3.9,15.3v68.1c0,1.3-0.7,2-2,2
		C0.6,85.3,0,84.7,0,83.4z"/>
	<path d="M64.7,83.6c0-0.3,0-0.5,0.1-0.7L88.5,6.6c0.3-1,0.9-1.5,2-1.5c1,0,1.7,0.5,2.1,1.5L115.9,83c0,0.1,0,0.2,0.1,0.3
		c0,0.1,0.1,0.2,0.1,0.3c0,0.5-0.2,0.9-0.7,1.3c-0.4,0.4-0.9,0.5-1.5,0.5c-0.9,0-1.5-0.5-1.7-1.4l-5.6-17.9H73.7l-5.4,17.7
		c-0.3,1-0.8,1.6-1.7,1.6C65.3,85.3,64.7,84.8,64.7,83.6z M74.9,62.1h30.5L90.2,12.3L74.9,62.1z"/>
	<path d="M125,83.4c0-0.4,0.1-0.8,0.3-1.2L144,45.5L125.5,9.1c-0.4-0.7-0.5-1.3-0.5-1.9c0-1,0.7-1.5,2-1.5c0.9,0,2,1.3,3.3,3.9
		l16,31.6l16.1-31.6c1.3-2.6,2.4-3.9,3.3-3.9c1.3,0,2,0.5,2,1.5c0,0.5-0.2,1.1-0.5,1.9l-18.6,36.4l18.8,36.7
		c0.2,0.4,0.3,0.8,0.3,1.2c0,0.6-0.2,1.1-0.6,1.4c-0.4,0.4-0.9,0.5-1.4,0.5c-0.3,0-0.6-0.1-0.8-0.2c-0.3-0.1-0.5-0.4-0.8-0.8
		c-0.1-0.4-0.3-0.7-0.4-0.9l-0.7-1.2l-0.4-0.9l-16.2-31.7l-16.1,31.7c-0.1,0-0.3,0.3-0.5,0.9l-0.4,1.2c-0.1,0.2-0.3,0.5-0.6,0.9
		c-0.3,0.4-0.5,0.6-0.8,0.8c-0.3,0.1-0.5,0.2-0.8,0.2c-0.6,0-1.1-0.2-1.4-0.5C125.2,84.4,125,84,125,83.4z"/>
	<path d="M178,80.2V10.8c0-1.4,0.7-2.6,2.1-3.6s3.2-1.5,5.3-1.5h19.3c8.1,0,14.6,2.1,19.5,6.2s7.3,10.6,7.3,19.5v28.2
		c0,8.9-2.4,15.4-7.3,19.5s-11.4,6.2-19.5,6.2h-19.3c-2.2,0-4-0.5-5.3-1.5C178.7,82.8,178,81.6,178,80.2z M195,70.5h9.7
		c6.5,0,9.8-3.6,9.8-10.9V31.4c0-7.3-3.3-10.9-9.8-10.9H195V70.5z"/>
	<path d="M240.1,80.1V11c0-1.7,0.7-3,2.2-3.9s3.2-1.4,5.2-1.4h38.8c1.7,0,2.9,0.7,3.8,2.2s1.3,3.2,1.3,5.1c0,2.1-0.5,3.9-1.4,5.3
		c-0.9,1.5-2.2,2.2-3.8,2.2H257v18.4h16.3c1.6,0,2.8,0.7,3.8,2c0.9,1.3,1.4,2.9,1.4,4.7c0,1.7-0.4,3.2-1.3,4.5s-2.1,2-3.8,2h-16.3
		v18.5h29.2c1.6,0,2.8,0.7,3.8,2.2c0.9,1.5,1.4,3.2,1.4,5.3c0,2-0.4,3.7-1.3,5.1c-0.9,1.5-2.1,2.2-3.8,2.2h-38.8
		c-2,0-3.8-0.5-5.2-1.4C240.8,83.1,240.1,81.8,240.1,80.1z"/>
	<path d="M296.3,72.3c0-2,0.7-4.1,2.2-6.1s3.2-3,5.2-3c1.1,0,2.3,0.4,3.6,1.3c1.3,0.9,2.6,1.9,3.7,2.9c1.1,1.1,2.7,2,4.7,2.9
		s4.2,1.3,6.4,1.3c2.8,0,5.3-0.6,7.4-1.8c2.1-1.2,3.2-3,3.2-5.4s-1.2-4.5-3.5-6.3c-2.4-1.8-5.2-3.5-8.6-5s-6.8-3.2-10.2-5
		c-3.4-1.9-6.3-4.5-8.7-7.9c-2.4-3.4-3.5-7.5-3.5-12.2c0-7.7,2.7-13.5,8.2-17.3s12-5.7,19.7-5.7c1.9,0,3.9,0.1,5.9,0.3
		s4.4,0.7,7,1.3c2.6,0.6,4.7,1.7,6.3,3.1c1.6,1.4,2.5,3.1,2.5,5.2c0,1.9-0.6,3.9-1.8,6c-1.2,2.1-2.9,3.1-5,3.1
		c-0.9,0-2.7-0.7-5.6-2.1c-2.8-1.4-6-2.1-9.4-2.1c-3.6,0-6.4,0.6-8.2,1.9c-1.8,1.3-2.7,2.8-2.7,4.6c0,1.7,0.9,3.2,2.6,4.6
		s3.8,2.6,6.4,3.5c2.5,1,5.3,2.3,8.3,3.8c3,1.6,5.8,3.3,8.3,5.1c2.5,1.9,4.7,4.4,6.4,7.8c1.7,3.3,2.6,7.2,2.6,11.4
		c0,7.5-2.5,13.3-7.5,17.5s-11.6,6.3-19.7,6.3c-7,0-13.2-1.5-18.4-4.4C298.9,79.2,296.3,75.9,296.3,72.3z"/>
	<path d="M353.1,78.4c0-0.2,0.1-0.6,0.2-1.2l20.3-66.4c0.6-1.8,1.9-3.2,4-4.2c2.1-1,4.4-1.5,7.1-1.5c2.7,0,5.1,0.5,7.1,1.5
		c2.1,1,3.4,2.4,4,4.2l20.4,66.4c0.1,0.6,0.2,1,0.2,1.2c0,1.9-1.2,3.5-3.5,4.9c-2.4,1.4-4.8,2.1-7.4,2.1c-3.1,0-5-1.1-5.6-3.2
		l-3.7-13.6h-23l-3.7,13.6c-0.6,2.1-2.4,3.2-5.6,3.2c-2.5,0-5-0.7-7.4-2.1C354.3,81.9,353.1,80.3,353.1,78.4z M376.7,55.5h15.9
		l-8-29.2L376.7,55.5z"/>
	<path d="M422.7,80.1V10.8c0-1.7,0.8-2.9,2.5-3.8s3.7-1.3,6-1.3s4.3,0.4,6,1.3s2.5,2.1,2.5,3.8v69.3c0,1.7-0.8,3-2.5,3.9
		s-3.7,1.4-6,1.4s-4.3-0.5-6-1.4C423.5,83.1,422.7,81.8,422.7,80.1z"/>
	<path d="M449.3,80.1V11c0-1.7,0.8-3,2.5-3.9s3.7-1.4,6-1.4c3.3,0,5.7,0.5,7.2,1.4c1.6,0.9,3.3,3.3,5.3,7.1l17.6,33.7v-37
		c0-1.7,0.8-2.9,2.5-3.8s3.7-1.3,6-1.3s4.3,0.4,6,1.3s2.5,2.1,2.5,3.8v69.3c0,1.7-0.8,3-2.5,3.9s-3.7,1.4-6,1.4
		c-4.6,0-7.8-1.5-9.5-4.6l-20.7-37.7v37c0,1.7-0.8,3-2.5,3.9s-3.7,1.4-6,1.4s-4.3-0.5-6-1.4C450.1,83.1,449.3,81.8,449.3,80.1z"/>
	<path d="M514.5,80.1V10.8c0-1.4,0.5-2.6,1.5-3.6s2.2-1.5,3.8-1.5h22.5c17.9,0,26.8,7.8,26.8,23.3c0,11.3-4.4,18.7-13.2,22.1
		l13.3,24.1c0.4,0.5,0.5,1.2,0.5,2c0,2.1-1.1,4.1-3.4,6s-4.7,2.8-7.2,2.8s-4.4-1.1-5.4-3.2l-14.9-29h-7.2V80c0,1.7-0.8,3-2.5,3.9
		c-1.7,0.9-3.7,1.4-6,1.4c-2.3,0-4.3-0.5-6-1.4C515.3,83.1,514.5,81.8,514.5,80.1z M531.5,40.8h10.8c3.2,0,5.6-0.8,7.3-2.3
		c1.7-1.6,2.5-4.2,2.5-7.8c0-3.6-0.8-6.2-2.5-7.8c-1.7-1.6-4.1-2.3-7.3-2.3h-10.8V40.8z"/>
</g>
</svg>
